<?xml version="1.0" encoding="utf-8"?>
<!-- Svg Vector Icons : http://www.onlinewebfonts.com/icon -->
<!DOCTYPE svg PUBLIC "-//W3C//DTD SVG 1.1//EN" "http://www.w3.org/Graphics/SVG/1.1/DTD/svg11.dtd">
<svg version="1.1" xmlns="http://www.w3.org/2000/svg" xmlns:xlink="http://www.w3.org/1999/xlink" x="0px" y="0px" viewBox="0 0 1000 1000" enable-background="new 0 0 1000 1000" xml:space="preserve">
<metadata> Svg Vector Icons : http://www.onlinewebfonts.com/icon </metadata>
<g><g transform="translate(0.000000,511.000000) scale(0.100000,-0.100000)"><path d="M2701.7,4530.5C1705,4413.4,821.2,3795.8,391,2914.1C248.3,2624.5,176,2407.2,124.8,2107c-40.5-242.8-34.1-313.1,38.3-366.3c55.4-42.6,159.7-36.2,213,12.8c23.4,23.4,51.1,78.8,57.5,121.4c44.7,279,66,376.9,119.3,540.9c121.4,376.9,306.7,685.7,581.4,975.4c521.8,545.2,1173.4,815.7,1950.8,809.3c261.9-2.1,266.2-2.1,313.1,55.4c63.9,72.4,61.8,142.7-2.1,217.2c-51.1,59.6-53.2,59.6-336.5,61.8C2904,4536.9,2742.2,4534.8,2701.7,4530.5z"/><path d="M2633.6,3829.8c-911.5-153.3-1665.4-890.2-1827.3-1782.5c-53.2-285.4-17-387.6,136.3-387.6c102.2,0,157.6,55.4,172.5,176.8c42.6,315.2,170.4,647.4,338.6,883.8c134.2,187.4,402.5,432.3,596.3,543.1c296,168.2,673,264.1,1011.6,257.7c206.6-4.3,210.8-4.3,257.7,42.6c44.7,44.7,55.4,146.9,21.3,213c-10.6,21.3-51.1,49-87.3,61.8C3163.9,3868.2,2840.2,3863.9,2633.6,3829.8z"/><path d="M2618.7,3137.7c-523.9-138.4-941.3-526-1098.9-1026.5c-68.1-217.2-87.3-368.4-53.2-432.3c40.5-74.5,134.2-106.5,210.8-76.7c74.5,31.9,98,78.8,129.9,257.7c63.9,364.2,321.6,694.3,670.8,862.5c183.2,87.3,323.7,117.1,545.2,117.1c153.3,0,174.6,6.4,221.5,53.2c70.3,68.2,70.3,166.1,0,234.3c-46.9,49-66,53.2-259.8,51.1C2850.8,3178.2,2720.9,3163.3,2618.7,3137.7z"/><path d="M2795.4,2469c-321.6-80.9-562.2-325.8-638.9-649.6c-40.5-174.6,14.9-276.9,153.3-279c91.6,0,151.2,63.9,178.9,202.3c51.1,251.3,264.1,415.3,534.6,415.3c129.9,0,149.1,6.4,187.4,55.4c59.6,76.7,57.5,159.7-8.5,221.5C3136.2,2496.7,2959.4,2511.6,2795.4,2469z"/><path d="M7525.4,2126.1c-415.3-91.6-4346.6-1167.1-4397.8-1203.3c-181-129.9-244.9-270.5-227.9-504.7l12.8-157.6l-174.6,12.8c-634.6,46.9-707.1,49-756,17C1871.2,220.1,1869,235,2158.7-868.2c191.7-724.1,285.4-1045.7,315.2-1077.6c85.2-93.7,153.3-70.3,536.7,185.3c191.7,127.8,359.9,236.4,372.7,238.5c12.8,4.3,40.5-44.7,61.8-106.5c44.7-127.8,144.8-242.8,264.1-304.5c172.5-89.5,200.2-85.2,1314,212.9c568.6,151.2,1039.3,270.5,1045.7,262c8.5-8.5,187.4-406.8,400.4-888.1c215.1-483.5,406.8-890.2,430.2-911.5c40.5-32,115-36.2,839.1-36.2h792.2l10.7-166.1c10.6-198,61.7-315.2,189.5-449.4c170.4-174.6,438.7-313,734.7-374.8c230-46.9,319.5-42.6,381.2,21.3l53.2,51.1v1429v1429l-53.2,51.1c-63.9,66-174.6,70.3-402.5,10.6c-491.9-125.6-877.4-489.8-903-856.1l-8.5-123.5l-543.1,4.3l-543.1,6.4l-210.8,500.5c-117.1,274.7-215.1,517.5-217.2,541c-4.3,34.1,78.8,61.7,666.6,215.1c368.4,98,696.4,187.4,726.2,198c161.9,63.9,296,272.6,296,462.1c0,68.2-100.1,483.4-276.9,1147.9c-302.4,1152.2-308.8,1164.9-500.5,1269.3C7795.9,2147.4,7687.3,2162.3,7525.4,2126.1z M7778.9,1770.5c49-42.6,89.4-181,321.6-1056.3c147-551.6,266.2-1032.9,266.2-1064.8c0-119.3-34.1-132-1182-436.6c-596.3-159.7-1573.8-419.6-2172.3-579.3c-621.9-164-1107.4-283.2-1133-276.9c-27.7,6.4-61.7,32-78.8,59.6c-38.4,57.5-566.5,2004-566.5,2082.8c0,129.9-63.9,110.7,2246.8,730.5c1194.7,321.6,2189.3,585.7,2208.5,585.7C7708.6,1817.3,7749,1796,7778.9,1770.5z M2823.1-69.6l195.9-12.8l31.9-110.7c85.2-293.9,247-911.5,247-934.9s-592-430.2-607-415.3c-4.3,4.3-89.4,328-189.5,719.8C2399.3-431.6,2312-93,2305.6-69.6c-12.8,36.2-2.1,38.3,153.3,25.5C2552.7-50.4,2714.5-61.1,2823.1-69.6z M6941.9-1922.4c161.9-391.9,276.9-641.1,304.6-660.2c36.2-23.4,161.8-29.8,666.6-29.8h624v-170.4v-170.4l-715.6,4.3l-715.6,6.4l-349.3,777.3c-191.7,428.1-345,785.9-340.7,798.6c4.2,19.2,157.6,68.2,227.9,72.4C6669.3-1292,6746-1451.7,6941.9-1922.4z M9559.2-2793.4c0-626.1-6.4-1139.4-14.9-1139.4c-57.5,2.1-298.2,70.3-368.4,106.5c-119.2,61.8-236.4,168.3-268.3,249.2c-23.4,53.2-29.8,230-29.8,768.8v698.6l59.6,95.8c123.5,191.7,379.1,353.5,575,357.8l46.9,2.1V-2793.4z"/><path d="M5549.1,893C4445.9,594.9,3706.9,386.2,3681.4,364.9c-85.2-74.5-38.3-253.4,72.4-281.1c31.9-8.5,713.4,166.1,1910.3,485.5C7663.8,1106,7600,1082.6,7600,1225.3c0,80.9-85.2,166.1-164,164C7404,1387.1,6554.3,1165.6,5549.1,893z"/><path d="M7312.5,652.4C7127.2,611.9,6993,514,6912.1,360.6c-70.3-134.2-63.9-334.4,12.8-466.4c168.3-285.4,530.3-351.4,773.1-136.3c125.7,110.7,176.8,223.6,178.9,383.3c0,262-183.1,472.8-447.2,511.1C7389.1,656.6,7335.9,658.8,7312.5,652.4z M7514.8,241.4c59.6-110.7-2.1-244.9-121.4-268.3c-57.5-10.6-78.8-2.1-134.2,51.1c-98,100.1-78.8,217.2,49,270.5C7384.9,326.5,7482.8,301,7514.8,241.4z"/></g></g>
</svg>