<?xml version="1.0" standalone="no"?>
<!DOCTYPE svg PUBLIC "-//W3C//DTD SVG 20010904//EN"
 "http://www.w3.org/TR/2001/REC-SVG-20010904/DTD/svg10.dtd">
<svg version="1.0" xmlns="http://www.w3.org/2000/svg"
 width="842.000000pt" height="980.000000pt" viewBox="0 0 842.000000 980.000000"
 preserveAspectRatio="xMidYMid meet">

<g transform="translate(0.000000,980.000000) scale(0.100000,-0.100000)"
fill="#000000" stroke="none">
<path d="M1580 9790 c-151 -6 -186 -11 -255 -34 -320 -108 -593 -399 -680
-724 -26 -99 -38 -399 -32 -817 4 -214 11 -432 17 -484 23 -195 109 -374 271
-563 l32 -37 -52 -58 c-151 -168 -239 -374 -262 -613 -13 -131 -5 -888 12
-1085 11 -133 36 -240 75 -316 14 -28 63 -106 109 -174 47 -69 85 -128 85
-132 0 -4 -17 -27 -38 -52 -62 -75 -101 -137 -148 -236 -64 -134 -82 -217 -95
-434 -13 -217 -6 -895 11 -1041 43 -359 301 -678 666 -823 177 -70 98 -66
1575 -79 1419 -12 3954 1 4069 22 199 35 399 141 561 297 100 97 161 182 218
305 85 182 95 289 88 918 -8 715 -20 773 -206 1021 l-77 102 101 151 c171 257
167 235 172 996 5 656 2 712 -46 836 -36 92 -110 215 -190 316 -43 55 -61 85
-55 94 5 7 39 49 76 95 134 165 201 336 217 549 17 233 22 635 12 900 -12 294
-24 359 -97 509 -114 238 -271 392 -535 526 l-132 67 -2646 3 c-1455 2 -2725
0 -2821 -5z m5272 -618 c118 -19 204 -81 293 -212 l47 -67 5 -479 c6 -528 2
-586 -48 -693 -35 -77 -139 -184 -214 -220 -45 -22 -68 -25 -260 -34 -282 -13
-4628 -14 -4922 0 l-221 10 -57 34 c-69 41 -166 143 -199 207 -47 92 -49 132
-47 667 l2 500 56 84 c67 100 145 165 223 188 35 10 118 18 230 23 289 12
5034 4 5112 -8z m-290 -2372 l306 -8 64 -31 c79 -37 188 -146 223 -223 13 -29
29 -82 34 -118 13 -77 14 -611 2 -856 -10 -207 -25 -248 -122 -350 -92 -95
-136 -113 -311 -127 -205 -15 -4900 -15 -5095 1 -109 9 -152 16 -190 34 -64
30 -163 131 -197 201 -40 81 -48 212 -44 705 5 453 7 473 65 564 35 56 121
137 168 158 57 26 170 40 378 49 256 11 4346 12 4719 1z m224 -2379 c110 -7
151 -14 182 -30 62 -31 138 -116 177 -195 46 -92 54 -180 55 -541 0 -317 -14
-566 -35 -650 -22 -84 -52 -123 -152 -205 l-88 -70 -2711 0 -2712 0 -79 64
c-99 80 -117 101 -142 156 -41 95 -46 160 -46 670 l0 485 36 75 c61 125 148
208 245 231 32 8 221 15 529 19 654 10 4565 3 4741 -9z"/>
<path d="M6050 8769 c-120 -24 -251 -130 -309 -251 -128 -270 33 -579 329
-630 191 -33 385 74 473 259 30 64 32 75 32 179 0 107 -1 112 -38 186 -95 192
-290 296 -487 257z"/>
<path d="M1932 8323 l3 -158 93 0 c662 2 761 5 770 23 5 9 12 79 14 155 l5
137 -444 0 -444 0 3 -157z"/>
<path d="M6044 6376 c-229 -52 -377 -267 -344 -499 52 -361 484 -505 751 -251
105 101 154 240 130 369 -48 262 -293 436 -537 381z"/>
<path d="M1980 6091 c-34 -6 -35 -8 -42 -61 -3 -30 -6 -97 -7 -147 l-1 -93
444 0 444 0 -4 118 c-3 64 -7 131 -10 148 l-4 31 -143 6 c-172 8 -628 7 -677
-2z"/>
<path d="M6039 4010 c-212 -26 -375 -263 -339 -494 23 -146 112 -265 245 -327
181 -85 371 -53 511 86 166 164 176 394 26 585 -74 95 -149 138 -259 146 -37
2 -81 6 -98 8 -16 1 -55 -1 -86 -4z"/>
<path d="M1937 3723 c-4 -3 -7 -71 -7 -150 l0 -143 443 2 442 3 0 145 0 145
-436 3 c-239 1 -439 -1 -442 -5z"/>
<path d="M4130 1821 c-41 -13 -113 -52 -138 -75 -35 -31 -60 -86 -72 -157 -8
-49 -26 -609 -30 -946 l0 -32 -1792 -4 c-1305 -3 -1809 -7 -1851 -16 -149 -30
-246 -157 -235 -310 7 -89 41 -154 119 -225 l62 -56 4021 0 4022 0 61 62 c90
93 108 133 108 243 0 99 -15 140 -75 208 -53 61 -109 77 -303 87 -95 5 -920
10 -1834 10 l-1661 0 -4 468 c-4 448 -5 470 -26 532 -48 142 -149 221 -281
219 -36 0 -77 -4 -91 -8z"/>
</g>
</svg>
